<svg width="840" height="190" viewBox="0 0 840 190" fill="none" xmlns="http://www.w3.org/2000/svg">
<path d="M286.062 55.9062C286.062 58.6875 285.719 61.1719 285.031 63.3594C284.344 65.5469 283.406 67.4844 282.219 69.1719C281.062 70.8281 279.719 72.25 278.188 73.4375C276.656 74.625 275.047 75.5938 273.359 76.3438C271.703 77.0938 270.016 77.6406 268.297 77.9844C266.609 78.3281 265.016 78.5 263.516 78.5H235.953V66.3125H263.516C265.078 66.1875 266.484 65.875 267.734 65.375C269.016 64.8438 270.109 64.1406 271.016 63.2656C271.922 62.3906 272.625 61.3438 273.125 60.125C273.625 58.875 273.875 57.4688 273.875 55.9062V50.375C273.719 48.8438 273.391 47.4375 272.891 46.1562C272.391 44.875 271.703 43.7812 270.828 42.875C269.984 41.9688 268.953 41.2656 267.734 40.7656C266.516 40.2344 265.109 39.9688 263.516 39.9688H236.047C234.422 39.9688 233.188 40.3906 232.344 41.2344C231.5 42.0781 231.078 43.2969 231.078 44.8906V95H218.891V44.8906C218.891 41.7656 219.453 39.1094 220.578 36.9219C221.734 34.7344 223.156 32.9688 224.844 31.625C226.562 30.2812 228.422 29.3125 230.422 28.7188C232.422 28.0938 234.266 27.7812 235.953 27.7812H263.516C266.266 27.7812 268.734 28.1406 270.922 28.8594C273.109 29.5469 275.031 30.4844 276.688 31.6719C278.375 32.8281 279.797 34.1719 280.953 35.7031C282.141 37.2344 283.109 38.8438 283.859 40.5312C284.641 42.1875 285.203 43.875 285.547 45.5938C285.891 47.2812 286.062 48.875 286.062 50.375V55.9062ZM363.688 50.375C363.688 53.1562 363.344 55.6406 362.656 57.8281C361.969 60.0156 361.031 61.9531 359.844 63.6406C358.688 65.2969 357.344 66.7188 355.812 67.9062C354.281 69.0938 352.672 70.0781 350.984 70.8594C349.328 71.6094 347.641 72.1562 345.922 72.5C344.234 72.8438 342.641 73.0156 341.141 73.0156L366.594 95H347.75L322.344 73.0156H313.578V60.8281H341.141C342.672 60.7031 344.062 60.3906 345.312 59.8906C346.594 59.3594 347.688 58.6562 348.594 57.7812C349.531 56.9062 350.25 55.8594 350.75 54.6406C351.25 53.3906 351.5 51.9688 351.5 50.375V42.6875C351.5 42 351.406 41.4844 351.219 41.1406C351.062 40.7656 350.844 40.5 350.562 40.3438C350.312 40.1562 350.031 40.0469 349.719 40.0156C349.438 39.9844 349.172 39.9688 348.922 39.9688H308.703V95H296.516V33.9219C296.516 33.0781 296.672 32.2812 296.984 31.5312C297.297 30.7812 297.719 30.125 298.25 29.5625C298.812 29 299.469 28.5625 300.219 28.25C300.969 27.9375 301.781 27.7812 302.656 27.7812H348.922C351.641 27.7812 353.938 28.2813 355.812 29.2812C357.688 30.25 359.203 31.4844 360.359 32.9844C361.547 34.4531 362.391 36.0469 362.891 37.7656C363.422 39.4844 363.688 41.0938 363.688 42.5938V50.375ZM431.188 67.5312H392.703V55.25H431.188V67.5312ZM436.672 95H392.703C391.016 95 389.172 94.7031 387.172 94.1094C385.172 93.5156 383.312 92.5469 381.594 91.2031C379.906 89.8281 378.484 88.0625 377.328 85.9062C376.203 83.7188 375.641 81.0469 375.641 77.8906V33.9219C375.641 33.0781 375.797 32.2812 376.109 31.5312C376.422 30.7812 376.844 30.125 377.375 29.5625C377.938 29 378.594 28.5625 379.344 28.25C380.094 27.9375 380.906 27.7812 381.781 27.7812H436.672V39.9688H387.828V77.8906C387.828 79.4844 388.25 80.7031 389.094 81.5469C389.938 82.3906 391.172 82.8125 392.797 82.8125H436.672V95ZM526.719 95H514.438V54.9688L492.828 92.9844C492.297 93.9531 491.547 94.6875 490.578 95.1875C489.641 95.6875 488.625 95.9375 487.531 95.9375C486.469 95.9375 485.469 95.6875 484.531 95.1875C483.625 94.6875 482.906 93.9531 482.375 92.9844L460.672 54.9688V95H448.484V32.9844C448.484 31.5781 448.891 30.3281 449.703 29.2344C450.547 28.1406 451.641 27.4062 452.984 27.0312C453.641 26.875 454.297 26.8281 454.953 26.8906C455.609 26.9219 456.234 27.0625 456.828 27.3125C457.453 27.5313 458.016 27.8594 458.516 28.2969C459.016 28.7031 459.438 29.2031 459.781 29.7969L487.531 78.0312L515.281 29.7969C516 28.6094 516.984 27.7656 518.234 27.2656C519.516 26.7656 520.844 26.6875 522.219 27.0312C523.531 27.4062 524.609 28.1406 525.453 29.2344C526.297 30.3281 526.719 31.5781 526.719 32.9844V95ZM553.203 95H541.016V27.7812H553.203V95ZM633.312 88.8594C633.312 89.7344 633.156 90.5469 632.844 91.2969C632.531 92.0469 632.094 92.7031 631.531 93.2656C630.969 93.7969 630.312 94.2188 629.562 94.5312C628.812 94.8438 628.016 95 627.172 95H599.703C597.109 95 594.484 94.7188 591.828 94.1562C589.172 93.5938 586.594 92.7344 584.094 91.5781C581.625 90.3906 579.297 88.8906 577.109 87.0781C574.922 85.2656 573 83.125 571.344 80.6562C569.719 78.1562 568.438 75.3125 567.5 72.125C566.562 68.9062 566.094 65.3281 566.094 61.3906V27.7812H578.281V61.3906C578.281 64.8281 578.75 67.7344 579.688 70.1094C580.656 72.4844 581.875 74.4688 583.344 76.0625C584.812 77.6562 586.422 78.9062 588.172 79.8125C589.922 80.7188 591.578 81.3906 593.141 81.8281C594.734 82.2656 596.125 82.5469 597.312 82.6719C598.531 82.7656 599.328 82.8125 599.703 82.8125H621.125V27.7812H633.312V88.8594ZM725.75 95H713.469V54.9688L691.859 92.9844C691.328 93.9531 690.578 94.6875 689.609 95.1875C688.672 95.6875 687.656 95.9375 686.562 95.9375C685.5 95.9375 684.5 95.6875 683.562 95.1875C682.656 94.6875 681.938 93.9531 681.406 92.9844L659.703 54.9688V95H647.516V32.9844C647.516 31.5781 647.922 30.3281 648.734 29.2344C649.578 28.1406 650.672 27.4062 652.016 27.0312C652.672 26.875 653.328 26.8281 653.984 26.8906C654.641 26.9219 655.266 27.0625 655.859 27.3125C656.484 27.5313 657.047 27.8594 657.547 28.2969C658.047 28.7031 658.469 29.2031 658.812 29.7969L686.562 78.0312L714.312 29.7969C715.031 28.6094 716.016 27.7656 717.266 27.2656C718.547 26.7656 719.875 26.6875 721.25 27.0312C722.562 27.4062 723.641 28.1406 724.484 29.2344C725.328 30.3281 725.75 31.5781 725.75 32.9844V95Z" fill="white"/>
<path d="M805.906 95H793.719V78.5H750.875V95H738.688V61.3906C738.688 56.4844 739.531 51.9688 741.219 47.8438C742.906 43.7188 745.25 40.1719 748.25 37.2031C751.25 34.2344 754.797 31.9219 758.891 30.2656C762.984 28.6094 767.453 27.7812 772.297 27.7812H799.766C800.609 27.7812 801.406 27.9375 802.156 28.25C802.906 28.5625 803.562 29 804.125 29.5625C804.688 30.125 805.125 30.7812 805.438 31.5312C805.75 32.2812 805.906 33.0781 805.906 33.9219V95ZM750.875 66.3125H793.719V39.9688H772.297C771.922 39.9688 771.125 40.0312 769.906 40.1562C768.719 40.25 767.328 40.5156 765.734 40.9531C764.172 41.3906 762.516 42.0625 760.766 42.9688C759.016 43.875 757.406 45.125 755.938 46.7188C754.469 48.3125 753.25 50.3125 752.281 52.7188C751.344 55.0938 750.875 57.9844 750.875 61.3906V66.3125ZM832.391 95H820.203V27.7812H832.391V95Z" fill="#4786FF"/>
<path d="M228.248 130.546L217.187 161H212.666L225.402 127.586H228.317L228.248 130.546ZM237.52 161L226.435 130.546L226.366 127.586H229.281L242.063 161H237.52ZM236.946 148.63V152.256H218.173V148.63H236.946ZM251.552 140.07V161H247.306V136.169H251.437L251.552 140.07ZM259.308 136.031L259.285 139.979C258.934 139.902 258.597 139.856 258.276 139.841C257.97 139.81 257.618 139.795 257.22 139.795C256.241 139.795 255.376 139.948 254.627 140.254C253.877 140.56 253.242 140.988 252.722 141.539C252.202 142.09 251.789 142.748 251.483 143.513C251.192 144.262 251.001 145.089 250.909 145.991L249.716 146.68C249.716 145.18 249.861 143.773 250.152 142.457C250.458 141.141 250.924 139.979 251.552 138.969C252.179 137.944 252.974 137.148 253.938 136.582C254.917 136.001 256.08 135.71 257.427 135.71C257.733 135.71 258.084 135.748 258.482 135.825C258.88 135.886 259.155 135.955 259.308 136.031ZM276.186 136.169V139.428H262.761V136.169H276.186ZM267.305 130.133H271.55V154.85C271.55 155.691 271.681 156.326 271.941 156.754C272.201 157.183 272.537 157.466 272.95 157.604C273.363 157.741 273.807 157.81 274.281 157.81C274.633 157.81 275.001 157.779 275.383 157.718C275.781 157.642 276.079 157.581 276.278 157.535L276.301 161C275.964 161.107 275.521 161.207 274.97 161.298C274.434 161.405 273.784 161.459 273.019 161.459C271.979 161.459 271.023 161.252 270.151 160.839C269.278 160.426 268.582 159.738 268.062 158.774C267.557 157.795 267.305 156.479 267.305 154.827V130.133ZM287.189 136.169V161H282.92V136.169H287.189ZM282.599 129.583C282.599 128.894 282.806 128.313 283.219 127.838C283.647 127.364 284.274 127.127 285.101 127.127C285.911 127.127 286.531 127.364 286.959 127.838C287.403 128.313 287.625 128.894 287.625 129.583C287.625 130.24 287.403 130.806 286.959 131.281C286.531 131.74 285.911 131.969 285.101 131.969C284.274 131.969 283.647 131.74 283.219 131.281C282.806 130.806 282.599 130.24 282.599 129.583ZM301.083 161H296.838V134.012C296.838 132.13 297.205 130.539 297.939 129.238C298.674 127.938 299.722 126.951 301.083 126.278C302.445 125.605 304.059 125.268 305.926 125.268C307.027 125.268 308.106 125.406 309.161 125.681C310.217 125.941 311.303 126.27 312.42 126.668L311.709 130.248C311.005 129.973 310.187 129.713 309.253 129.468C308.335 129.208 307.326 129.078 306.224 129.078C304.403 129.078 303.088 129.491 302.277 130.317C301.481 131.128 301.083 132.359 301.083 134.012V161ZM306.155 136.169V139.428H292.913V136.169H306.155ZM314.509 136.169V161H310.263V136.169H314.509ZM332.832 157.971C333.842 157.971 334.775 157.764 335.632 157.351C336.489 156.938 337.193 156.372 337.743 155.653C338.294 154.918 338.608 154.085 338.684 153.151H342.723C342.647 154.62 342.15 155.989 341.232 157.259C340.329 158.514 339.143 159.531 337.675 160.312C336.206 161.076 334.592 161.459 332.832 161.459C330.966 161.459 329.336 161.13 327.944 160.472C326.567 159.814 325.42 158.912 324.502 157.764C323.599 156.617 322.918 155.301 322.459 153.817C322.015 152.318 321.794 150.734 321.794 149.066V148.103C321.794 146.435 322.015 144.859 322.459 143.375C322.918 141.876 323.599 140.552 324.502 139.405C325.42 138.257 326.567 137.355 327.944 136.697C329.336 136.039 330.966 135.71 332.832 135.71C334.775 135.71 336.474 136.108 337.927 136.903C339.38 137.684 340.52 138.755 341.346 140.116C342.188 141.463 342.647 142.993 342.723 144.706H338.684C338.608 143.681 338.317 142.755 337.812 141.929C337.323 141.103 336.649 140.445 335.793 139.956C334.951 139.451 333.964 139.198 332.832 139.198C331.532 139.198 330.438 139.458 329.55 139.979C328.678 140.483 327.982 141.172 327.462 142.044C326.957 142.901 326.59 143.857 326.361 144.913C326.146 145.953 326.039 147.016 326.039 148.103V149.066C326.039 150.153 326.146 151.224 326.361 152.279C326.575 153.335 326.934 154.291 327.439 155.148C327.959 156.005 328.655 156.693 329.528 157.213C330.415 157.718 331.516 157.971 332.832 157.971ZM353.52 136.169V161H349.251V136.169H353.52ZM348.93 129.583C348.93 128.894 349.136 128.313 349.549 127.838C349.978 127.364 350.605 127.127 351.431 127.127C352.242 127.127 352.862 127.364 353.29 127.838C353.734 128.313 353.956 128.894 353.956 129.583C353.956 130.24 353.734 130.806 353.29 131.281C352.862 131.74 352.242 131.969 351.431 131.969C350.605 131.969 349.978 131.74 349.549 131.281C349.136 130.806 348.93 130.24 348.93 129.583ZM376.387 156.754V143.972C376.387 142.993 376.188 142.143 375.79 141.424C375.408 140.69 374.827 140.124 374.046 139.726C373.266 139.328 372.302 139.129 371.155 139.129C370.084 139.129 369.143 139.313 368.332 139.68C367.536 140.047 366.909 140.529 366.45 141.126C366.006 141.723 365.785 142.365 365.785 143.054H361.539C361.539 142.166 361.768 141.287 362.227 140.415C362.686 139.542 363.344 138.755 364.201 138.051C365.073 137.332 366.113 136.766 367.322 136.353C368.546 135.924 369.908 135.71 371.407 135.71C373.212 135.71 374.804 136.016 376.181 136.628C377.573 137.24 378.659 138.166 379.439 139.405C380.235 140.629 380.633 142.166 380.633 144.018V155.584C380.633 156.41 380.702 157.29 380.839 158.223C380.992 159.156 381.214 159.96 381.505 160.633V161H377.076C376.861 160.51 376.693 159.86 376.571 159.049C376.448 158.223 376.387 157.458 376.387 156.754ZM377.121 145.945L377.167 148.929H372.876C371.667 148.929 370.589 149.028 369.64 149.227C368.691 149.411 367.896 149.694 367.253 150.076C366.611 150.459 366.121 150.941 365.785 151.522C365.448 152.088 365.28 152.754 365.28 153.519C365.28 154.299 365.456 155.01 365.807 155.653C366.159 156.295 366.687 156.808 367.391 157.19C368.11 157.558 368.99 157.741 370.03 157.741C371.331 157.741 372.478 157.466 373.473 156.915C374.467 156.364 375.255 155.691 375.836 154.896C376.433 154.1 376.754 153.327 376.8 152.578L378.613 154.62C378.506 155.263 378.215 155.974 377.741 156.754C377.267 157.535 376.632 158.284 375.836 159.003C375.056 159.707 374.123 160.296 373.036 160.771C371.966 161.229 370.757 161.459 369.411 161.459C367.728 161.459 366.251 161.13 364.981 160.472C363.727 159.814 362.748 158.935 362.044 157.833C361.355 156.716 361.011 155.469 361.011 154.092C361.011 152.761 361.271 151.591 361.791 150.581C362.312 149.556 363.061 148.707 364.04 148.034C365.02 147.345 366.198 146.825 367.575 146.473C368.952 146.121 370.489 145.945 372.187 145.945H377.121ZM393.334 125.75V161H389.065V125.75H393.334ZM419.241 136.169V161H414.972V136.169H419.241ZM414.651 129.583C414.651 128.894 414.857 128.313 415.27 127.838C415.699 127.364 416.326 127.127 417.152 127.127C417.963 127.127 418.583 127.364 419.011 127.838C419.455 128.313 419.677 128.894 419.677 129.583C419.677 130.24 419.455 130.806 419.011 131.281C418.583 131.74 417.963 131.969 417.152 131.969C416.326 131.969 415.699 131.74 415.27 131.281C414.857 130.806 414.651 130.24 414.651 129.583ZM431.712 141.47V161H427.467V136.169H431.483L431.712 141.47ZM430.702 147.644L428.935 147.575C428.951 145.876 429.203 144.308 429.693 142.87C430.182 141.417 430.871 140.154 431.758 139.083C432.645 138.013 433.701 137.186 434.925 136.605C436.164 136.008 437.534 135.71 439.033 135.71C440.257 135.71 441.358 135.878 442.338 136.215C443.317 136.536 444.151 137.056 444.839 137.775C445.543 138.494 446.078 139.428 446.446 140.575C446.813 141.707 446.996 143.092 446.996 144.729V161H442.728V144.683C442.728 143.383 442.537 142.342 442.154 141.562C441.772 140.766 441.213 140.193 440.479 139.841C439.744 139.474 438.842 139.29 437.771 139.29C436.715 139.29 435.751 139.512 434.879 139.956C434.022 140.399 433.28 141.011 432.653 141.792C432.041 142.572 431.559 143.467 431.207 144.477C430.871 145.471 430.702 146.527 430.702 147.644ZM465.251 136.169V139.428H451.826V136.169H465.251ZM456.37 130.133H460.615V154.85C460.615 155.691 460.745 156.326 461.005 156.754C461.266 157.183 461.602 157.466 462.015 157.604C462.428 157.741 462.872 157.81 463.346 157.81C463.698 157.81 464.065 157.779 464.448 157.718C464.846 157.642 465.144 157.581 465.343 157.535L465.366 161C465.029 161.107 464.586 161.207 464.035 161.298C463.499 161.405 462.849 161.459 462.084 161.459C461.044 161.459 460.087 161.252 459.215 160.839C458.343 160.426 457.647 159.738 457.127 158.774C456.622 157.795 456.37 156.479 456.37 154.827V130.133ZM481.945 161.459C480.216 161.459 478.648 161.168 477.241 160.587C475.848 159.99 474.647 159.156 473.638 158.085C472.643 157.014 471.878 155.745 471.343 154.276C470.807 152.807 470.539 151.201 470.539 149.457V148.493C470.539 146.473 470.838 144.675 471.434 143.1C472.031 141.508 472.842 140.162 473.867 139.061C474.892 137.959 476.055 137.125 477.355 136.559C478.656 135.993 480.002 135.71 481.394 135.71C483.169 135.71 484.699 136.016 485.984 136.628C487.285 137.24 488.348 138.097 489.174 139.198C490 140.285 490.612 141.57 491.01 143.054C491.408 144.522 491.607 146.129 491.607 147.873V149.778H473.064V146.312H487.361V145.991C487.3 144.89 487.071 143.819 486.673 142.778C486.29 141.738 485.678 140.881 484.837 140.208C483.995 139.535 482.848 139.198 481.394 139.198C480.431 139.198 479.543 139.405 478.732 139.818C477.921 140.216 477.225 140.812 476.644 141.608C476.063 142.403 475.611 143.375 475.29 144.522C474.969 145.67 474.808 146.993 474.808 148.493V149.457C474.808 150.635 474.969 151.744 475.29 152.784C475.627 153.809 476.108 154.712 476.736 155.492C477.378 156.272 478.151 156.884 479.054 157.328C479.972 157.772 481.012 157.994 482.175 157.994C483.674 157.994 484.944 157.688 485.984 157.076C487.025 156.464 487.935 155.645 488.715 154.62L491.286 156.663C490.75 157.473 490.069 158.246 489.243 158.98C488.417 159.715 487.399 160.312 486.191 160.771C484.997 161.229 483.582 161.459 481.945 161.459ZM502.587 125.75V161H498.318V125.75H502.587ZM515.425 125.75V161H511.157V125.75H515.425ZM528.264 136.169V161H523.996V136.169H528.264ZM523.674 129.583C523.674 128.894 523.881 128.313 524.294 127.838C524.722 127.364 525.35 127.127 526.176 127.127C526.987 127.127 527.606 127.364 528.035 127.838C528.478 128.313 528.7 128.894 528.7 129.583C528.7 130.24 528.478 130.806 528.035 131.281C527.606 131.74 526.987 131.969 526.176 131.969C525.35 131.969 524.722 131.74 524.294 131.281C523.881 130.806 523.674 130.24 523.674 129.583ZM552.577 136.169H556.433V160.472C556.433 162.66 555.989 164.527 555.102 166.072C554.214 167.617 552.975 168.787 551.384 169.583C549.808 170.394 547.988 170.799 545.922 170.799C545.065 170.799 544.056 170.662 542.893 170.386C541.745 170.126 540.613 169.675 539.496 169.032C538.395 168.405 537.469 167.556 536.72 166.485L538.946 163.96C539.986 165.215 541.072 166.087 542.204 166.577C543.352 167.066 544.484 167.311 545.601 167.311C546.947 167.311 548.11 167.059 549.089 166.554C550.068 166.049 550.826 165.299 551.361 164.305C551.912 163.326 552.187 162.117 552.187 160.679V141.631L552.577 136.169ZM535.48 148.86V148.378C535.48 146.481 535.702 144.76 536.146 143.214C536.605 141.654 537.255 140.315 538.096 139.198C538.953 138.081 539.986 137.225 541.195 136.628C542.403 136.016 543.765 135.71 545.28 135.71C546.84 135.71 548.202 135.985 549.365 136.536C550.543 137.072 551.537 137.86 552.348 138.9C553.174 139.925 553.824 141.164 554.299 142.618C554.773 144.071 555.102 145.716 555.285 147.552V149.663C555.117 151.484 554.788 153.121 554.299 154.574C553.824 156.028 553.174 157.267 552.348 158.292C551.537 159.317 550.543 160.105 549.365 160.656C548.186 161.191 546.81 161.459 545.234 161.459C543.75 161.459 542.403 161.145 541.195 160.518C540.001 159.891 538.976 159.011 538.119 157.879C537.263 156.747 536.605 155.416 536.146 153.886C535.702 152.34 535.48 150.665 535.48 148.86ZM539.726 148.378V148.86C539.726 150.099 539.848 151.262 540.093 152.348C540.353 153.434 540.743 154.391 541.263 155.217C541.799 156.043 542.48 156.693 543.306 157.167C544.132 157.626 545.119 157.856 546.266 157.856C547.674 157.856 548.837 157.558 549.755 156.961C550.673 156.364 551.399 155.576 551.935 154.597C552.486 153.618 552.914 152.555 553.22 151.407V145.876C553.052 145.035 552.792 144.224 552.44 143.444C552.103 142.648 551.659 141.944 551.109 141.333C550.573 140.705 549.908 140.208 549.112 139.841C548.317 139.474 547.383 139.29 546.312 139.29C545.15 139.29 544.147 139.535 543.306 140.024C542.48 140.499 541.799 141.157 541.263 141.998C540.743 142.824 540.353 143.788 540.093 144.89C539.848 145.976 539.726 147.139 539.726 148.378ZM574.596 161.459C572.867 161.459 571.299 161.168 569.891 160.587C568.499 159.99 567.298 159.156 566.288 158.085C565.294 157.014 564.529 155.745 563.993 154.276C563.458 152.807 563.19 151.201 563.19 149.457V148.493C563.19 146.473 563.488 144.675 564.085 143.1C564.682 141.508 565.493 140.162 566.518 139.061C567.543 137.959 568.706 137.125 570.006 136.559C571.306 135.993 572.653 135.71 574.045 135.71C575.82 135.71 577.35 136.016 578.635 136.628C579.935 137.24 580.999 138.097 581.825 139.198C582.651 140.285 583.263 141.57 583.661 143.054C584.059 144.522 584.257 146.129 584.257 147.873V149.778H565.714V146.312H580.012V145.991C579.951 144.89 579.721 143.819 579.323 142.778C578.941 141.738 578.329 140.881 577.487 140.208C576.646 139.535 575.498 139.198 574.045 139.198C573.081 139.198 572.194 139.405 571.383 139.818C570.572 140.216 569.876 140.812 569.295 141.608C568.713 142.403 568.262 143.375 567.941 144.522C567.619 145.67 567.459 146.993 567.459 148.493V149.457C567.459 150.635 567.619 151.744 567.941 152.784C568.277 153.809 568.759 154.712 569.386 155.492C570.029 156.272 570.802 156.884 571.704 157.328C572.622 157.772 573.663 157.994 574.825 157.994C576.325 157.994 577.595 157.688 578.635 157.076C579.675 156.464 580.586 155.645 581.366 154.62L583.936 156.663C583.401 157.473 582.72 158.246 581.894 158.98C581.068 159.715 580.05 160.312 578.841 160.771C577.648 161.229 576.233 161.459 574.596 161.459ZM594.87 141.47V161H590.624V136.169H594.641L594.87 141.47ZM593.86 147.644L592.093 147.575C592.109 145.876 592.361 144.308 592.851 142.87C593.34 141.417 594.029 140.154 594.916 139.083C595.803 138.013 596.859 137.186 598.083 136.605C599.322 136.008 600.692 135.71 602.191 135.71C603.415 135.71 604.516 135.878 605.496 136.215C606.475 136.536 607.309 137.056 607.997 137.775C608.701 138.494 609.236 139.428 609.603 140.575C609.971 141.707 610.154 143.092 610.154 144.729V161H605.886V144.683C605.886 143.383 605.694 142.342 605.312 141.562C604.929 140.766 604.371 140.193 603.637 139.841C602.902 139.474 602 139.29 600.929 139.29C599.873 139.29 598.909 139.512 598.037 139.956C597.18 140.399 596.438 141.011 595.811 141.792C595.199 142.572 594.717 143.467 594.365 144.477C594.029 145.471 593.86 146.527 593.86 147.644ZM627.95 157.971C628.96 157.971 629.893 157.764 630.75 157.351C631.607 156.938 632.31 156.372 632.861 155.653C633.412 154.918 633.726 154.085 633.802 153.151H637.841C637.765 154.62 637.267 155.989 636.349 157.259C635.447 158.514 634.261 159.531 632.792 160.312C631.324 161.076 629.709 161.459 627.95 161.459C626.083 161.459 624.454 161.13 623.062 160.472C621.685 159.814 620.537 158.912 619.619 157.764C618.717 156.617 618.036 155.301 617.577 153.817C617.133 152.318 616.911 150.734 616.911 149.066V148.103C616.911 146.435 617.133 144.859 617.577 143.375C618.036 141.876 618.717 140.552 619.619 139.405C620.537 138.257 621.685 137.355 623.062 136.697C624.454 136.039 626.083 135.71 627.95 135.71C629.893 135.71 631.591 136.108 633.045 136.903C634.498 137.684 635.638 138.755 636.464 140.116C637.306 141.463 637.765 142.993 637.841 144.706H633.802C633.726 143.681 633.435 142.755 632.93 141.929C632.44 141.103 631.767 140.445 630.91 139.956C630.069 139.451 629.082 139.198 627.95 139.198C626.65 139.198 625.556 139.458 624.668 139.979C623.796 140.483 623.1 141.172 622.58 142.044C622.075 142.901 621.708 143.857 621.478 144.913C621.264 145.953 621.157 147.016 621.157 148.103V149.066C621.157 150.153 621.264 151.224 621.478 152.279C621.693 153.335 622.052 154.291 622.557 155.148C623.077 156.005 623.773 156.693 624.645 157.213C625.533 157.718 626.634 157.971 627.95 157.971ZM654.329 161.459C652.6 161.459 651.032 161.168 649.624 160.587C648.232 159.99 647.031 159.156 646.021 158.085C645.027 157.014 644.262 155.745 643.726 154.276C643.191 152.807 642.923 151.201 642.923 149.457V148.493C642.923 146.473 643.221 144.675 643.818 143.1C644.415 141.508 645.226 140.162 646.251 139.061C647.276 137.959 648.438 137.125 649.739 136.559C651.039 135.993 652.386 135.71 653.778 135.71C655.553 135.71 657.083 136.016 658.368 136.628C659.668 137.24 660.732 138.097 661.558 139.198C662.384 140.285 662.996 141.57 663.394 143.054C663.791 144.522 663.99 146.129 663.99 147.873V149.778H645.447V146.312H659.745V145.991C659.684 144.89 659.454 143.819 659.056 142.778C658.674 141.738 658.062 140.881 657.22 140.208C656.379 139.535 655.231 139.198 653.778 139.198C652.814 139.198 651.927 139.405 651.116 139.818C650.305 140.216 649.609 140.812 649.027 141.608C648.446 142.403 647.995 143.375 647.673 144.522C647.352 145.67 647.192 146.993 647.192 148.493V149.457C647.192 150.635 647.352 151.744 647.673 152.784C648.01 153.809 648.492 154.712 649.119 155.492C649.762 156.272 650.534 156.884 651.437 157.328C652.355 157.772 653.395 157.994 654.558 157.994C656.058 157.994 657.327 157.688 658.368 157.076C659.408 156.464 660.318 155.645 661.099 154.62L663.669 156.663C663.134 157.473 662.453 158.246 661.627 158.98C660.8 159.715 659.783 160.312 658.574 160.771C657.381 161.229 655.966 161.459 654.329 161.459ZM697.884 154.414C697.884 153.802 697.746 153.236 697.471 152.715C697.21 152.18 696.667 151.698 695.841 151.27C695.03 150.826 693.806 150.443 692.169 150.122C690.792 149.831 689.545 149.487 688.429 149.089C687.327 148.692 686.386 148.21 685.606 147.644C684.841 147.077 684.252 146.412 683.839 145.647C683.426 144.882 683.219 143.987 683.219 142.962C683.219 141.983 683.433 141.057 683.862 140.185C684.305 139.313 684.925 138.54 685.721 137.867C686.531 137.194 687.503 136.666 688.635 136.284C689.767 135.901 691.029 135.71 692.422 135.71C694.411 135.71 696.109 136.062 697.516 136.766C698.924 137.469 700.003 138.41 700.752 139.588C701.502 140.751 701.877 142.044 701.877 143.467H697.631C697.631 142.778 697.425 142.113 697.012 141.47C696.614 140.812 696.025 140.269 695.244 139.841C694.479 139.412 693.539 139.198 692.422 139.198C691.244 139.198 690.287 139.382 689.553 139.749C688.834 140.101 688.306 140.552 687.97 141.103C687.648 141.654 687.488 142.235 687.488 142.847C687.488 143.306 687.564 143.719 687.717 144.086C687.885 144.438 688.176 144.767 688.589 145.073C689.002 145.364 689.584 145.639 690.333 145.899C691.083 146.16 692.039 146.42 693.202 146.68C695.237 147.139 696.912 147.689 698.228 148.332C699.544 148.975 700.523 149.763 701.165 150.696C701.808 151.629 702.129 152.761 702.129 154.092C702.129 155.179 701.9 156.173 701.441 157.076C700.997 157.978 700.347 158.759 699.49 159.417C698.649 160.059 697.639 160.564 696.461 160.931C695.298 161.283 693.99 161.459 692.536 161.459C690.349 161.459 688.497 161.069 686.983 160.289C685.468 159.508 684.321 158.499 683.54 157.259C682.76 156.02 682.37 154.712 682.37 153.335H686.638C686.7 154.498 687.036 155.423 687.648 156.112C688.26 156.785 689.01 157.267 689.897 157.558C690.785 157.833 691.664 157.971 692.536 157.971C693.699 157.971 694.671 157.818 695.451 157.512C696.247 157.206 696.851 156.785 697.264 156.25C697.677 155.714 697.884 155.102 697.884 154.414ZM719.42 161.459C717.691 161.459 716.123 161.168 714.715 160.587C713.323 159.99 712.122 159.156 711.112 158.085C710.118 157.014 709.353 155.745 708.818 154.276C708.282 152.807 708.014 151.201 708.014 149.457V148.493C708.014 146.473 708.313 144.675 708.909 143.1C709.506 141.508 710.317 140.162 711.342 139.061C712.367 137.959 713.53 137.125 714.83 136.559C716.131 135.993 717.477 135.71 718.869 135.71C720.644 135.71 722.174 136.016 723.459 136.628C724.76 137.24 725.823 138.097 726.649 139.198C727.475 140.285 728.087 141.57 728.485 143.054C728.883 144.522 729.082 146.129 729.082 147.873V149.778H710.539V146.312H724.836V145.991C724.775 144.89 724.545 143.819 724.148 142.778C723.765 141.738 723.153 140.881 722.312 140.208C721.47 139.535 720.323 139.198 718.869 139.198C717.905 139.198 717.018 139.405 716.207 139.818C715.396 140.216 714.7 140.812 714.119 141.608C713.537 142.403 713.086 143.375 712.765 144.522C712.444 145.67 712.283 146.993 712.283 148.493V149.457C712.283 150.635 712.444 151.744 712.765 152.784C713.101 153.809 713.583 154.712 714.211 155.492C714.853 156.272 715.626 156.884 716.528 157.328C717.446 157.772 718.487 157.994 719.65 157.994C721.149 157.994 722.419 157.688 723.459 157.076C724.5 156.464 725.41 155.645 726.19 154.62L728.76 156.663C728.225 157.473 727.544 158.246 726.718 158.98C725.892 159.715 724.874 160.312 723.666 160.771C722.472 161.229 721.057 161.459 719.42 161.459ZM739.694 140.07V161H735.449V136.169H739.58L739.694 140.07ZM747.451 136.031L747.428 139.979C747.076 139.902 746.74 139.856 746.418 139.841C746.112 139.81 745.761 139.795 745.363 139.795C744.384 139.795 743.519 139.948 742.77 140.254C742.02 140.56 741.385 140.988 740.865 141.539C740.345 142.09 739.931 142.748 739.625 143.513C739.335 144.262 739.144 145.089 739.052 145.991L737.858 146.68C737.858 145.18 738.004 143.773 738.294 142.457C738.6 141.141 739.067 139.979 739.694 138.969C740.322 137.944 741.117 137.148 742.081 136.582C743.06 136.001 744.223 135.71 745.569 135.71C745.875 135.71 746.227 135.748 746.625 135.825C747.023 135.886 747.298 135.955 747.451 136.031ZM760.749 157.167L767.542 136.169H771.879L762.952 161H760.106L760.749 157.167ZM755.08 136.169L762.08 157.282L762.562 161H759.716L750.72 136.169H755.08ZM781.987 136.169V161H777.718V136.169H781.987ZM777.397 129.583C777.397 128.894 777.604 128.313 778.017 127.838C778.445 127.364 779.072 127.127 779.899 127.127C780.709 127.127 781.329 127.364 781.758 127.838C782.201 128.313 782.423 128.894 782.423 129.583C782.423 130.24 782.201 130.806 781.758 131.281C781.329 131.74 780.709 131.969 779.899 131.969C779.072 131.969 778.445 131.74 778.017 131.281C777.604 130.806 777.397 130.24 777.397 129.583ZM800.15 157.971C801.16 157.971 802.093 157.764 802.95 157.351C803.806 156.938 804.51 156.372 805.061 155.653C805.612 154.918 805.925 154.085 806.002 153.151H810.041C809.965 154.62 809.467 155.989 808.549 157.259C807.647 158.514 806.461 159.531 804.992 160.312C803.523 161.076 801.909 161.459 800.15 161.459C798.283 161.459 796.654 161.13 795.262 160.472C793.885 159.814 792.737 158.912 791.819 157.764C790.917 156.617 790.236 155.301 789.777 153.817C789.333 152.318 789.111 150.734 789.111 149.066V148.103C789.111 146.435 789.333 144.859 789.777 143.375C790.236 141.876 790.917 140.552 791.819 139.405C792.737 138.257 793.885 137.355 795.262 136.697C796.654 136.039 798.283 135.71 800.15 135.71C802.093 135.71 803.791 136.108 805.245 136.903C806.698 137.684 807.838 138.755 808.664 140.116C809.506 141.463 809.965 142.993 810.041 144.706H806.002C805.925 143.681 805.635 142.755 805.13 141.929C804.64 141.103 803.967 140.445 803.11 139.956C802.269 139.451 801.282 139.198 800.15 139.198C798.849 139.198 797.756 139.458 796.868 139.979C795.996 140.483 795.3 141.172 794.78 142.044C794.275 142.901 793.908 143.857 793.678 144.913C793.464 145.953 793.357 147.016 793.357 148.103V149.066C793.357 150.153 793.464 151.224 793.678 152.279C793.892 153.335 794.252 154.291 794.757 155.148C795.277 156.005 795.973 156.693 796.845 157.213C797.733 157.718 798.834 157.971 800.15 157.971ZM826.529 161.459C824.8 161.459 823.232 161.168 821.824 160.587C820.432 159.99 819.231 159.156 818.221 158.085C817.227 157.014 816.462 155.745 815.926 154.276C815.391 152.807 815.123 151.201 815.123 149.457V148.493C815.123 146.473 815.421 144.675 816.018 143.1C816.615 141.508 817.425 140.162 818.451 139.061C819.476 137.959 820.638 137.125 821.939 136.559C823.239 135.993 824.586 135.71 825.978 135.71C827.753 135.71 829.283 136.016 830.568 136.628C831.868 137.24 832.932 138.097 833.758 139.198C834.584 140.285 835.196 141.57 835.594 143.054C835.991 144.522 836.19 146.129 836.19 147.873V149.778H817.647V146.312H831.945V145.991C831.884 144.89 831.654 143.819 831.256 142.778C830.874 141.738 830.262 140.881 829.42 140.208C828.579 139.535 827.431 139.198 825.978 139.198C825.014 139.198 824.127 139.405 823.316 139.818C822.505 140.216 821.809 140.812 821.227 141.608C820.646 142.403 820.195 143.375 819.873 144.522C819.552 145.67 819.391 146.993 819.391 148.493V149.457C819.391 150.635 819.552 151.744 819.873 152.784C820.21 153.809 820.692 154.712 821.319 155.492C821.962 156.272 822.734 156.884 823.637 157.328C824.555 157.772 825.595 157.994 826.758 157.994C828.258 157.994 829.527 157.688 830.568 157.076C831.608 156.464 832.518 155.645 833.299 154.62L835.869 156.663C835.334 157.473 834.653 158.246 833.827 158.98C833 159.715 831.983 160.312 830.774 160.771C829.581 161.229 828.166 161.459 826.529 161.459Z" fill="#808080"/>
<path fill-rule="evenodd" clip-rule="evenodd" d="M18.7573 142.743C15.8613 145.639 15.8821 150.34 18.8036 153.211V153.211C21.6295 155.987 26.1448 156.032 29.0261 153.313L55.3632 128.46C57.3653 126.571 58.5 123.94 58.5 121.187V114.185C58.5 109.622 55.1729 105.843 51.636 102.96C47.5863 99.6594 45 94.6317 45 89C45 79.0589 53.0589 71 63 71C72.9411 71 81 79.0589 81 89C81 94.4216 78.603 99.2834 74.811 102.583C71.5319 105.437 68.5 109.093 68.5 113.44V125.16C68.5 127.929 67.3522 130.573 65.3299 132.464L36.6602 159.272C33.3951 162.325 33.3314 167.484 36.5201 170.616V170.616C39.5664 173.609 44.4452 173.621 47.5059 170.643L56.0328 162.346C58.7671 159.686 62.7769 158.813 66.3697 160.096L67.8634 160.63C71.8433 162.051 74.5 165.821 74.5 170.047V182.272C74.5 186.264 77.7361 189.5 81.728 189.5V189.5C85.7199 189.5 88.9559 186.264 88.9559 182.272L88.9559 78.0123C88.9559 73.7837 86.08 70.1978 82.9415 67.364C79.293 64.0699 77 59.3027 77 54C77 44.0589 85.0589 36 95 36C104.941 36 113 44.0589 113 54C113 59.4947 110.538 64.4143 106.657 67.7159C103.29 70.5805 100.158 74.2796 100.158 78.7005L100.159 182.079C100.159 186.178 103.481 189.5 107.579 189.5V189.5C111.678 189.5 115 186.178 115 182.079V169.96C115 165.777 117.604 162.036 121.527 160.583L122.666 160.161C126.238 158.838 130.251 159.659 133.016 162.279L142.655 171.41C145.371 173.983 149.627 173.981 152.341 171.405V171.405C155.28 168.616 155.262 163.927 152.303 161.16L130.17 140.464C128.148 138.573 127 135.929 127 133.16V124.819C127 120.364 123.822 116.645 120.414 113.776C116.492 110.474 114 105.528 114 100C114 90.0589 122.059 82 132 82C141.941 82 150 90.0589 150 100C150 105.528 147.508 110.474 143.586 113.776C140.178 116.645 137 120.364 137 124.819V129.187C137 131.94 138.135 134.571 140.137 136.46L158.89 154.156C162.159 157.242 167.271 157.235 170.532 154.139V154.139C174.049 150.801 174.05 145.197 170.534 141.858L161.978 133.729C158.979 130.88 158.044 126.478 159.625 122.656L160.444 120.676C161.991 116.938 165.638 114.5 169.684 114.5H179.5C185.023 114.5 189.5 110.023 189.5 104.5V84C189.5 78.4772 185.023 74 179.5 74H169.398C165.498 74 161.953 71.7321 160.319 68.1906L159.922 67.3311C158.166 63.5271 158.968 59.0319 161.931 56.0694L169.742 48.2579C173.72 44.2805 173.635 37.8062 169.555 33.9338L154.566 19.707C150.634 15.9749 144.444 16.0556 140.611 19.889L133.033 27.4672C130.27 30.2296 126.152 31.1304 122.489 29.7736L121.527 29.4174C117.604 27.9644 115 24.2232 115 20.0399V10C115 4.47715 110.523 0 105 0H84.5C78.9772 0 74.5 4.47715 74.5 10V19.9528C74.5 24.1789 71.8433 27.9488 67.8634 29.3702L66.5479 29.84C62.8632 31.156 58.7494 30.2021 56.0199 27.3988L49.0075 20.1969C45.1425 16.2274 38.7867 16.1569 34.8346 20.0397L20.5146 34.1084C16.6216 37.9331 16.5141 44.1727 20.2728 48.1293L27.9875 56.25C30.7279 59.1347 31.4975 63.3695 29.9472 67.0339L29.5823 67.8964C28.017 71.5961 24.3898 74 20.3726 74H10C4.47715 74 0 78.4772 0 84V104.5C0 110.023 4.47715 114.5 10 114.5H20.0979C24.2525 114.5 27.9744 117.069 29.4479 120.953L30.2069 122.954C31.6025 126.634 30.7105 130.79 27.9279 133.572L18.7573 142.743Z" fill="#4786FF"/>
</svg>
